<svg xmlns="http://www.w3.org/2000/svg" viewBox="0 0 85 85"><defs><style>.cls-1{fill:#262626;}.cls-2{fill:#f5f5f5;}</style></defs><title>Facebook_2</title><g id="Circle_Black" data-name="Circle Black"><g id="Facebook"><path id="Facebook-2" data-name="Facebook" class="cls-2" d="M63.18,19.26H21.82a2.56,2.56,0,0,0-2.56,2.56V63.18a2.56,2.56,0,0,0,2.56,2.56H44.09v-18H38v-7h6.06V35.55c0-6,3.66-9.27,9-9.27a48.14,48.14,0,0,1,5.41.28v6.27H54.81c-2.92,0-3.48,1.39-3.48,3.42v4.48h7l-.91,7h-6v18H63.18a2.56,2.56,0,0,0,2.56-2.56V21.82A2.56,2.56,0,0,0,63.18,19.26Z"/></g></g></svg>