<svg xmlns="http://www.w3.org/2000/svg" viewBox="0 0 85 85"><defs><style>.cls-1{fill:#262626;}.cls-2,.cls-3{fill:#f5f5f5;}.cls-2{fill-rule:evenodd;}</style></defs><title>Github_2</title><g id="Circle_Black" data-name="Circle Black"><g id="Github"><g id="Github-2" data-name="Github"><path class="cls-2" d="M42.5,19.29A23.8,23.8,0,0,0,35,65.67c1.19.22,1.62-.52,1.62-1.14s0-2.45,0-4.43c-6.62,1.43-8-2.81-8-2.81-1.08-2.75-2.64-3.49-2.64-3.49-2.16-1.47.16-1.44.16-1.44a5,5,0,0,1,3.65,2.45c2.12,3.64,5.57,2.59,6.93,2a5,5,0,0,1,1.51-3.18C32.87,53,27.31,51,27.31,41.84a9.17,9.17,0,0,1,2.46-6.38,8.5,8.5,0,0,1,.23-6.3s2-.64,6.54,2.44a22.6,22.6,0,0,1,11.92,0C53,28.52,55,29.16,55,29.16a8.5,8.5,0,0,1,.23,6.3,9.16,9.16,0,0,1,2.45,6.38C57.68,51,52.12,53,46.82,53.59A5.7,5.7,0,0,1,48.43,58c0,3.18,0,5.74,0,6.53,0,.63.43,1.37,1.64,1.14A23.8,23.8,0,0,0,42.5,19.29Z"/><path class="cls-3" d="M27.71,53.46c-.05.12-.23.15-.4.07s-.27-.24-.22-.36.24-.15.41-.07.27.24.21.36Zm-.29-.22"/><path class="cls-3" d="M28.68,54.53c-.11.11-.34.06-.49-.11a.37.37,0,0,1-.07-.49c.12-.11.33-.06.49.11s.19.39.07.49Zm-.23-.24"/><path class="cls-3" d="M29.62,55.91c-.15.1-.39,0-.53-.21s-.15-.47,0-.57.38,0,.53.2.15.47,0,.58Zm0,0"/><path class="cls-3" d="M30.9,57.23c-.13.14-.41.1-.61-.09s-.27-.47-.13-.61.41-.1.61.09.27.47.13.61Zm0,0"/><path class="cls-3" d="M32.68,58c-.06.18-.33.27-.6.19s-.44-.3-.39-.49.33-.27.6-.19.44.3.39.49Zm0,0"/><path class="cls-3" d="M34.62,58.14c0,.2-.22.36-.5.36s-.52-.15-.52-.34.22-.36.51-.37.51.16.51.35Zm0,0"/><path class="cls-3" d="M36.44,57.83c0,.19-.17.39-.45.44s-.53-.06-.56-.25.16-.4.44-.45.53.07.57.26Zm0,0"/></g></g></g></svg>