<svg xmlns="http://www.w3.org/2000/svg" viewBox="0 0 85 85"><defs><style>.cls-1{fill:#262626;}.cls-2{fill:#f5f5f5;}</style></defs><title>Twitter_2</title><g id="Circle_Black" data-name="Circle Black"><g id="Twitter"><path id="Twitter-2" data-name="Twitter" class="cls-2" d="M66.3,27.74a19.83,19.83,0,0,1-5.61,1.54A9.76,9.76,0,0,0,65,23.87a19.46,19.46,0,0,1-6.2,2.37,9.77,9.77,0,0,0-16.89,6.68,10.23,10.23,0,0,0,.25,2.23A27.78,27.78,0,0,1,22,25a9.77,9.77,0,0,0,3,13,9.78,9.78,0,0,1-4.43-1.22v.13a9.77,9.77,0,0,0,7.84,9.57,9.95,9.95,0,0,1-4.41.17,9.76,9.76,0,0,0,9.12,6.78A19.6,19.6,0,0,1,21,57.59a19.84,19.84,0,0,1-2.33-.14,27.55,27.55,0,0,0,15,4.39c18,0,27.79-14.88,27.79-27.78,0-.43,0-.85,0-1.27A19.82,19.82,0,0,0,66.3,27.74Z"/></g></g></svg>